<svg width="30" height="31" viewBox="0 0 30 31" fill="none" xmlns="http://www.w3.org/2000/svg">
<g clip-path="url(#clip0_5613_25)">
<path d="M15.0014 30.0718C15.0014 30.0718 26.2529 19.3873 26.2529 11.2809C26.2529 8.2907 25.0675 5.42297 22.9574 3.30859C20.8474 1.1942 17.9855 0.00634766 15.0014 0.00634766C12.0174 0.00634766 9.15553 1.1942 7.04547 3.30859C4.93542 5.42297 3.75 8.2907 3.75 11.2809C3.75 19.3873 15.0014 30.0718 15.0014 30.0718ZM15.0014 16.9182C13.5094 16.9182 12.0785 16.3242 11.0235 15.267C9.96843 14.2099 9.37572 12.776 9.37572 11.2809C9.37572 9.7858 9.96843 8.35193 11.0235 7.29474C12.0785 6.23755 13.5094 5.64362 15.0014 5.64362C16.4935 5.64362 17.9244 6.23755 18.9794 7.29474C20.0345 8.35193 20.6272 9.7858 20.6272 11.2809C20.6272 12.776 20.0345 14.2099 18.9794 15.267C17.9244 16.3242 16.4935 16.9182 15.0014 16.9182Z" fill="#910000"/>
</g>
<defs>
<clipPath id="clip0_5613_25">
<rect width="30.0039" height="30.0655" fill="white" transform="translate(0 0.00634766)"/>
</clipPath>
</defs>
</svg>
