<?xml version="1.0" encoding="utf-8"?><svg xmlns="http://www.w3.org/2000/svg" xmlns:xlink="http://www.w3.org/1999/xlink"><symbol viewBox="0 0 37 43" id="6" xmlns="http://www.w3.org/2000/svg">
    <mask id="apath-1-outside-1_5587_31" maskUnits="userSpaceOnUse" x="-2" y="-2" width="41" height="47">
        <rect x="-2" y="-2" width="41" height="47"/>
        <path d="M18.718 42.6C15.198 42.6 12.098 41.96 9.41797 40.68C6.73797 39.4 4.63797 37.64 3.11797 35.4C1.63797 33.12 0.897969 30.52 0.897969 27.6C0.897969 26.36 1.07797 25.14 1.43797 23.94C1.83797 22.7 2.31797 21.54 2.87797 20.46C3.43797 19.34 3.99797 18.36 4.55797 17.52C5.11797 16.64 5.57797 15.94 5.93797 15.42L16.498 1.2C16.698 0.999997 16.958 0.759997 17.278 0.479998C17.598 0.159997 18.058 -2.86102e-06 18.658 -2.86102e-06H26.638C26.998 -2.86102e-06 27.298 0.139998 27.538 0.419999C27.778 0.659998 27.898 0.959998 27.898 1.32C27.898 1.48 27.878 1.64 27.838 1.8C27.798 1.92 27.738 2.02 27.658 2.1L19.558 13.14C19.798 13.06 20.078 13.02 20.398 13.02C20.758 12.98 21.078 12.96 21.358 12.96C23.158 13.04 24.938 13.44 26.698 14.16C28.458 14.88 30.058 15.86 31.498 17.1C32.938 18.34 34.078 19.84 34.918 21.6C35.798 23.32 36.238 25.26 36.238 27.42C36.238 30.18 35.518 32.72 34.078 35.04C32.638 37.32 30.598 39.16 27.958 40.56C25.358 41.92 22.278 42.6 18.718 42.6ZM18.658 33.96C19.818 33.96 20.898 33.72 21.898 33.24C22.898 32.72 23.698 32 24.298 31.08C24.938 30.12 25.258 28.94 25.258 27.54C25.258 26.14 24.958 24.98 24.358 24.06C23.758 23.1 22.958 22.38 21.958 21.9C20.958 21.42 19.858 21.18 18.658 21.18C17.458 21.18 16.338 21.42 15.298 21.9C14.298 22.38 13.498 23.1 12.898 24.06C12.298 24.98 11.998 26.14 11.998 27.54C11.998 28.94 12.298 30.12 12.898 31.08C13.538 32 14.358 32.72 15.358 33.24C16.358 33.72 17.458 33.96 18.658 33.96Z"/>
    </mask>
    <path d="M9.41797 40.68L10.2694 38.8973L9.41797 40.68ZM3.11797 35.4L1.46087 36.4757L1.47186 36.4926L1.4832 36.5093L3.11797 35.4ZM1.43797 23.94L-0.442236 23.3335L-0.448479 23.3528L-0.454322 23.3723L1.43797 23.94ZM2.87797 20.46L4.63183 21.3694L4.63851 21.3565L4.64501 21.3435L2.87797 20.46ZM4.55797 17.52L6.20178 18.6159L6.21343 18.5984L6.22471 18.5807L4.55797 17.52ZM5.93797 15.42L4.35188 14.2421L4.33231 14.2685L4.31364 14.2955L5.93797 15.42ZM16.498 1.2L15.101 -0.196959L14.9984 -0.0943537L14.9119 0.0221424L16.498 1.2ZM17.278 0.479998L18.5789 1.9668L18.6284 1.92348L18.6749 1.87696L17.278 0.479998ZM27.538 0.419999L26.038 1.70571L26.0874 1.76332L26.141 1.81697L27.538 0.419999ZM27.838 1.8L29.7122 2.42474L29.7362 2.35276L29.7546 2.27915L27.838 1.8ZM27.658 2.1L26.261 0.703042L26.1543 0.809703L26.0651 0.931319L27.658 2.1ZM19.558 13.14L17.9651 11.9713L14.2919 16.9778L20.1827 15.0142L19.558 13.14ZM20.398 13.02V14.9956H20.5074L20.6161 14.9835L20.398 13.02ZM21.358 12.96L21.4457 10.9863L21.4018 10.9844H21.358V12.96ZM31.498 17.1L32.7871 15.6029L31.498 17.1ZM34.918 21.6L33.135 22.451L33.1468 22.4756L33.1592 22.4998L34.918 21.6ZM34.078 35.04L35.7483 36.095L35.7525 36.0884L35.7565 36.0819L34.078 35.04ZM27.958 40.56L28.8737 42.3106L28.8835 42.3054L27.958 40.56ZM21.898 33.24L22.7529 35.0211L22.7814 35.0074L22.8094 34.9928L21.898 33.24ZM24.298 31.08L22.6542 29.9841L22.6486 29.9924L22.6432 30.0008L24.298 31.08ZM24.358 24.06L22.6827 25.1071L22.6928 25.1232L22.7032 25.1392L24.358 24.06ZM21.958 21.9L21.1031 23.6811L21.958 21.9ZM15.298 21.9L14.4701 20.1062L14.4565 20.1125L14.4431 20.1189L15.298 21.9ZM12.898 24.06L14.5528 25.1392L14.5632 25.1232L14.5733 25.1071L12.898 24.06ZM12.898 31.08L11.2227 32.1271L11.2484 32.1683L11.2762 32.2082L12.898 31.08ZM15.358 33.24L14.4465 34.9928L14.4746 35.0074L14.5031 35.0211L15.358 33.24ZM18.718 40.6244C15.4386 40.6244 12.6387 40.0289 10.2694 38.8973L8.56652 42.4627C11.5572 43.8911 14.9574 44.5756 18.718 44.5756V40.6244ZM10.2694 38.8973C7.87402 37.7532 6.0572 36.2131 4.75274 34.2907L1.4832 36.5093C3.21874 39.0669 5.60192 41.0468 8.56652 42.4627L10.2694 38.8973ZM4.77507 34.3243C3.51851 32.3886 2.87358 30.1678 2.87358 27.6H-1.07764C-1.07764 30.8722 -0.242576 33.8514 1.46087 36.4757L4.77507 34.3243ZM2.87358 27.6C2.87358 26.5543 3.02493 25.5255 3.33026 24.5077L-0.454322 23.3723C-0.868993 24.7545 -1.07764 26.1657 -1.07764 27.6H2.87358ZM3.31817 24.5465C3.68689 23.4035 4.12569 22.3455 4.63183 21.3694L1.12411 19.5506C0.510252 20.7345 -0.0109516 21.9965 -0.442236 23.3335L3.31817 24.5465ZM4.64501 21.3435C5.17668 20.2802 5.69647 19.3738 6.20178 18.6159L2.91416 16.4241C2.29947 17.3462 1.69926 18.3998 1.11093 19.5765L4.64501 21.3435ZM6.22471 18.5807C6.77854 17.7104 7.22311 17.0345 7.5623 16.5445L4.31364 14.2955C3.93283 14.8455 3.45739 15.5696 2.89122 16.4593L6.22471 18.5807ZM7.52406 16.5979L18.0841 2.37786L14.9119 0.0221424L4.35188 14.2421L7.52406 16.5979ZM17.8949 2.59696C18.0527 2.43918 18.2773 2.23071 18.5789 1.9668L15.977 -1.0068C15.6386 -0.71072 15.3432 -0.43919 15.101 -0.196959L17.8949 2.59696ZM18.6749 1.87696C18.6447 1.90723 18.6118 1.93274 18.5796 1.95254C18.5479 1.97207 18.5235 1.98194 18.512 1.98595C18.4913 1.99315 18.5296 1.97561 18.658 1.97561V-1.97561C17.7107 -1.97561 16.6801 -1.71609 15.881 -0.916966L18.6749 1.87696ZM18.658 1.97561H26.638V-1.97561H18.658V1.97561ZM26.638 1.97561C26.5549 1.97561 26.4314 1.95772 26.2975 1.89526C26.1649 1.83339 26.0801 1.75482 26.038 1.70571L29.038 -0.865709C28.4332 -1.57132 27.5907 -1.97561 26.638 -1.97561V1.97561ZM26.141 1.81697C26.0815 1.7575 26.018 1.66959 25.9737 1.55872C25.9302 1.45016 25.9224 1.36268 25.9224 1.32H29.8736C29.8736 0.47131 29.5697 -0.34225 28.9349 -0.976968L26.141 1.81697ZM25.9224 1.32C25.9224 1.31744 25.9225 1.31561 25.9226 1.31496C25.9227 1.31434 25.9225 1.31618 25.9213 1.32085L29.7546 2.27915C29.8326 1.96728 29.8736 1.64644 29.8736 1.32H25.9224ZM25.9637 1.17526C26.0092 1.039 26.0997 0.86438 26.261 0.703042L29.0549 3.49696C29.3763 3.17562 29.5868 2.80099 29.7122 2.42474L25.9637 1.17526ZM26.0651 0.931319L17.9651 11.9713L21.1508 14.3087L29.2508 3.26868L26.0651 0.931319ZM20.1827 15.0142C20.176 15.0165 20.2367 14.9956 20.398 14.9956V11.0444C19.9192 11.0444 19.4199 11.1035 18.9332 11.2658L20.1827 15.0142ZM20.6161 14.9835C20.9235 14.9494 21.1684 14.9356 21.358 14.9356V10.9844C20.9876 10.9844 20.5925 11.0106 20.1798 11.0565L20.6161 14.9835ZM21.2703 14.9337C22.8311 15.003 24.3883 15.3497 25.9499 15.9885L27.446 12.3315C25.4876 11.5303 23.4848 11.077 21.4457 10.9863L21.2703 14.9337ZM25.9499 15.9885C27.513 16.628 28.9303 17.4961 30.2088 18.5971L32.7871 15.6029C31.1857 14.2239 29.4029 13.132 27.446 12.3315L25.9499 15.9885ZM30.2088 18.5971C31.4357 19.6535 32.4099 20.9316 33.135 22.451L36.7009 20.749C35.7461 18.7484 34.4403 17.0265 32.7871 15.6029L30.2088 18.5971ZM33.1592 22.4998C33.8806 23.9098 34.2624 25.5355 34.2624 27.42H38.2136C38.2136 24.9845 37.7154 22.7302 36.6768 20.7002L33.1592 22.4998ZM34.2624 27.42C34.2624 29.816 33.643 31.9945 32.3994 33.9981L35.7565 36.0819C37.3929 33.4455 38.2136 30.544 38.2136 27.42H34.2624ZM32.4076 33.985C31.1708 35.9433 29.4019 37.5581 27.0324 38.8146L28.8835 42.3054C31.794 40.7619 34.1051 38.6967 35.7483 36.095L32.4076 33.985ZM27.0423 38.8094C24.779 39.9933 22.0264 40.6244 18.718 40.6244V44.5756C22.5296 44.5756 25.9369 43.8467 28.8737 42.3106L27.0423 38.8094ZM18.658 35.9356C20.1 35.9356 21.4738 35.635 22.7529 35.0211L21.0431 31.4589C20.3221 31.805 19.5359 31.9844 18.658 31.9844V35.9356ZM22.8094 34.9928C24.1028 34.3202 25.162 33.3716 25.9528 32.1592L22.6432 30.0008C22.2339 30.6284 21.6932 31.1198 20.9865 31.4872L22.8094 34.9928ZM25.9418 32.1759C26.8405 30.8277 27.2336 29.2459 27.2336 27.54H23.2824C23.2824 28.6341 23.0354 29.4123 22.6542 29.9841L25.9418 32.1759ZM27.2336 27.54C27.2336 25.8613 26.8727 24.2994 26.0128 22.9808L22.7032 25.1392C23.0432 25.6606 23.2824 26.4187 23.2824 27.54H27.2336ZM26.0333 23.0129C25.2392 21.7424 24.1576 20.7644 22.8129 20.1189L21.1031 23.6811C21.7583 23.9956 22.2767 24.4576 22.6827 25.1071L26.0333 23.0129ZM22.8129 20.1189C21.5247 19.5006 20.1293 19.2044 18.658 19.2044V23.1556C19.5867 23.1556 20.3912 23.3394 21.1031 23.6811L22.8129 20.1189ZM18.658 19.2044C17.186 19.2044 15.782 19.5007 14.4701 20.1062L16.1259 23.6938C16.8939 23.3393 17.7299 23.1556 18.658 23.1556V19.2044ZM14.4431 20.1189C13.0983 20.7644 12.0167 21.7424 11.2227 23.0129L14.5733 25.1071C14.9792 24.4576 15.4976 23.9956 16.1529 23.6811L14.4431 20.1189ZM11.2432 22.9808C10.3832 24.2994 10.0224 25.8613 10.0224 27.54H13.9736C13.9736 26.4187 14.2127 25.6606 14.5528 25.1392L11.2432 22.9808ZM10.0224 27.54C10.0224 29.2228 10.3847 30.7863 11.2227 32.1271L14.5733 30.0329C14.2112 29.4537 13.9736 28.6572 13.9736 27.54H10.0224ZM11.2762 32.2082C12.1 33.3924 13.1643 34.3261 14.4465 34.9928L16.2694 31.4872C15.5516 31.1139 14.976 30.6076 14.5198 29.9518L11.2762 32.2082ZM14.5031 35.0211C15.7912 35.6394 17.1867 35.9356 18.658 35.9356V31.9844C17.7293 31.9844 16.9247 31.8006 16.2129 31.4589L14.5031 35.0211Z" mask="url(#apath-1-outside-1_5587_31)"/>
</symbol><symbol viewBox="0 0 27 23" id="arrow-left" xmlns="http://www.w3.org/2000/svg">
    <path fill-rule="evenodd" clip-rule="evenodd" d="M28.1155 12.0001C28.1155 12.4311 27.9346 12.8444 27.6128 13.1491C27.2909 13.4539 26.8543 13.6251 26.3991 13.6251L6.51354 13.6251L13.8835 20.5996C14.0431 20.7507 14.1697 20.93 14.2561 21.1275C14.3424 21.3249 14.3869 21.5364 14.3869 21.7501C14.3869 21.9638 14.3424 22.1753 14.2561 22.3727C14.1697 22.5701 14.0431 22.7495 13.8835 22.9006C13.724 23.0517 13.5345 23.1715 13.326 23.2533C13.1175 23.3351 12.894 23.3772 12.6684 23.3772C12.4427 23.3772 12.2192 23.3351 12.0107 23.2533C11.8022 23.1715 11.6128 23.0517 11.4532 22.9006L1.15511 13.1506C0.995273 12.9997 0.868461 12.8203 0.781934 12.6229C0.695409 12.4255 0.650871 12.2138 0.650871 12.0001C0.650871 11.7864 0.695409 11.5747 0.781934 11.3773C0.868461 11.1799 0.995273 11.0005 1.15511 10.8496L11.4532 1.0996C11.6128 0.948513 11.8022 0.828665 12.0107 0.746898C12.2192 0.665131 12.4427 0.623046 12.6684 0.623046C12.894 0.623046 13.1175 0.665131 13.326 0.746898C13.5345 0.828665 13.724 0.948514 13.8835 1.0996C14.2058 1.40473 14.3869 1.81858 14.3869 2.2501C14.3869 2.46377 14.3424 2.67534 14.2561 2.87275C14.1697 3.07015 14.0431 3.24951 13.8835 3.4006L6.51354 10.3751L26.3991 10.3751C26.8543 10.3751 27.2909 10.5463 27.6128 10.8511C27.9346 11.1558 28.1155 11.5691 28.1155 12.0001Z"/>
</symbol><symbol viewBox="1 0 27 23" id="arrow-right" xmlns="http://www.w3.org/2000/svg">
    <path fill-rule="evenodd" clip-rule="evenodd" d="M0.346435 11.9999C0.346435 11.5689 0.527264 11.1556 0.849141 10.8509C1.17102 10.5461 1.60758 10.3749 2.06278 10.3749L21.9484 10.3749L14.5784 3.4004C14.4188 3.24931 14.2922 3.06995 14.2059 2.87255C14.1195 2.67514 14.075 2.46357 14.075 2.2499C14.075 2.03623 14.1195 1.82465 14.2059 1.62725C14.2922 1.42985 14.4188 1.25048 14.5784 1.0994C14.738 0.948312 14.9274 0.828466 15.1359 0.746698C15.3444 0.664932 15.5679 0.622848 15.7936 0.622848C16.0192 0.622848 16.2427 0.664932 16.4512 0.746698C16.6597 0.828466 16.8491 0.948312 17.0087 1.0994L27.3068 10.8494C27.4666 11.0003 27.5935 11.1797 27.68 11.3771C27.7665 11.5745 27.811 11.7862 27.811 11.9999C27.811 12.2136 27.7665 12.4253 27.68 12.6227C27.5935 12.8201 27.4666 12.9995 27.3068 13.1504L17.0087 22.9004C16.8491 23.0515 16.6597 23.1713 16.4512 23.2531C16.2427 23.3349 16.0192 23.377 15.7936 23.377C15.5679 23.377 15.3444 23.3349 15.1359 23.2531C14.9274 23.1713 14.738 23.0515 14.5784 22.9004C14.2561 22.5953 14.075 22.1814 14.075 21.7499C14.075 21.5362 14.1195 21.3247 14.2059 21.1273C14.2922 20.9298 14.4188 20.7505 14.5784 20.5994L21.9484 13.6249L2.06278 13.6249C1.60758 13.6249 1.17102 13.4537 0.849142 13.1489C0.527264 12.8442 0.346435 12.4309 0.346435 11.9999Z"/>
</symbol><symbol viewBox="0 0 30 31" id="location" xmlns="http://www.w3.org/2000/svg">
    <g clip-path="url(#dclip0_5613_25)">
        <path d="M15.0014 30.0718C15.0014 30.0718 26.2529 19.3873 26.2529 11.2809C26.2529 8.2907 25.0675 5.42297 22.9574 3.30859C20.8474 1.1942 17.9855 0.00634766 15.0014 0.00634766C12.0174 0.00634766 9.15553 1.1942 7.04547 3.30859C4.93542 5.42297 3.75 8.2907 3.75 11.2809C3.75 19.3873 15.0014 30.0718 15.0014 30.0718ZM15.0014 16.9182C13.5094 16.9182 12.0785 16.3242 11.0235 15.267C9.96843 14.2099 9.37572 12.776 9.37572 11.2809C9.37572 9.7858 9.96843 8.35193 11.0235 7.29474C12.0785 6.23755 13.5094 5.64362 15.0014 5.64362C16.4935 5.64362 17.9244 6.23755 18.9794 7.29474C20.0345 8.35193 20.6272 9.7858 20.6272 11.2809C20.6272 12.776 20.0345 14.2099 18.9794 15.267C17.9244 16.3242 16.4935 16.9182 15.0014 16.9182Z"/>
    </g>
    <defs>
        <clipPath id="dclip0_5613_25">
            <rect width="30.0039" height="30.0655" transform="translate(0 0.00634766)"/>
        </clipPath>
    </defs>
</symbol></svg>