<?xml version="1.0" encoding="utf-8"?><svg viewBox="0 0 37 43" xmlns="http://www.w3.org/2000/svg" xmlns:xlink="http://www.w3.org/1999/xlink"><style>:root>svg{display:none}:root>svg:target{display:block}</style><svg fill="none" viewBox="0 0 37 43" id="6" xmlns="http://www.w3.org/2000/svg">
    <mask id="aa" maskUnits="userSpaceOnUse" x="-2" y="-2" width="41" height="47" fill="#000">
        <path fill="#fff" d="M-2-2h41v47H-2z"/>
        <path d="M18.718 42.6c-3.52 0-6.62-.64-9.3-1.92-2.68-1.28-4.78-3.04-6.3-5.28-1.48-2.28-2.22-4.88-2.22-7.8 0-1.24.18-2.46.54-3.66.4-1.24.88-2.4 1.44-3.48.56-1.12 1.12-2.1 1.68-2.94.56-.88 1.02-1.58 1.38-2.1L16.498 1.2c.2-.2.46-.44.78-.72.32-.32.78-.48 1.38-.48h7.98c.36 0 .66.14.9.42.24.24.36.54.36.9 0 .16-.02.32-.06.48-.04.12-.1.22-.18.3l-8.1 11.04c.24-.08.52-.12.84-.12.36-.04.68-.06.96-.06 1.8.08 3.58.48 5.34 1.2 1.76.72 3.36 1.7 4.8 2.94s2.58 2.74 3.42 4.5c.88 1.72 1.32 3.66 1.32 5.82 0 2.76-.72 5.3-2.16 7.62-1.44 2.28-3.48 4.12-6.12 5.52-2.6 1.36-5.68 2.04-9.24 2.04Zm-.06-8.64c1.16 0 2.24-.24 3.24-.72 1-.52 1.8-1.24 2.4-2.16.64-.96.96-2.14.96-3.54s-.3-2.56-.9-3.48c-.6-.96-1.4-1.68-2.4-2.16-1-.48-2.1-.72-3.3-.72-1.2 0-2.32.24-3.36.72-1 .48-1.8 1.2-2.4 2.16-.6.92-.9 2.08-.9 3.48s.3 2.58.9 3.54a6.74 6.74 0 0 0 2.46 2.16c1 .48 2.1.72 3.3.72Z"/>
    </mask>
    <path d="m9.418 40.68.851-1.783-.851 1.783Zm-6.3-5.28-1.657 1.076.01.017.012.016L3.118 35.4Zm-1.68-11.46-1.88-.607-.006.02-.006.02 1.892.567Zm1.44-3.48 1.754.91.007-.014.006-.013-1.767-.883Zm1.68-2.94 1.644 1.096.011-.018.012-.017-1.667-1.061Zm1.38-2.1-1.586-1.178-.02.026-.018.027 1.624 1.125ZM16.498 1.2 15.101-.197l-.103.103-.086.116L16.498 1.2Zm.78-.72 1.3 1.487.05-.044.047-.046L17.278.48Zm10.26-.06-1.5 1.286.05.057.053.054L27.538.42Zm.3 1.38 1.874.625.024-.072.019-.074-1.917-.479Zm-.18.3L26.261.703l-.107.107-.089.121L27.658 2.1Zm-8.1 11.04-1.593-1.169-3.673 5.007 5.89-1.964-.624-1.874Zm.84-.12v1.976h.11l.108-.013-.218-1.963Zm.96-.06.088-1.974-.044-.002h-.044v1.976Zm10.14 4.14 1.29-1.497-1.29 1.497Zm3.42 4.5-1.783.851.012.025.012.024 1.759-.9Zm-.84 13.44 1.67 1.055.005-.007.004-.006-1.679-1.042Zm-6.12 5.52.916 1.75.01-.005-.926-1.745Zm-6.06-7.32.855 1.781.028-.014.028-.014-.911-1.753Zm2.4-2.16-1.644-1.096-.005.008-.006.009 1.655 1.079Zm.06-7.02-1.675 1.047.01.016.01.016 1.655-1.079Zm-2.4-2.16-.855 1.781.855-1.781Zm-6.66 0-.828-1.794-.014.006-.013.007.855 1.781Zm-2.4 2.16 1.655 1.08.01-.017.01-.016-1.675-1.047Zm0 7.02-1.675 1.047.025.041.028.04 1.622-1.128Zm2.46 2.16-.912 1.753.029.014.028.014.855-1.781Zm3.36 7.384c-3.28 0-6.08-.595-8.449-1.727l-1.702 3.566c2.99 1.428 6.39 2.113 10.151 2.113v-3.952Zm-8.449-1.727c-2.395-1.144-4.212-2.684-5.516-4.606l-3.27 2.218c1.736 2.558 4.119 4.538 7.084 5.954l1.702-3.566Zm-5.494-4.573C3.52 32.39 2.874 30.168 2.874 27.6h-3.952c0 3.272.835 6.251 2.539 8.876l3.314-2.152ZM2.874 27.6c0-1.046.15-2.075.456-3.092l-3.784-1.136a14.647 14.647 0 0 0-.624 4.228h3.952Zm.444-3.053a20.679 20.679 0 0 1 1.314-3.178l-3.508-1.818a24.627 24.627 0 0 0-1.566 3.783l3.76 1.213Zm1.327-3.204a25.499 25.499 0 0 1 1.557-2.727l-3.288-2.192a29.421 29.421 0 0 0-1.803 3.152l3.534 1.767Zm1.58-2.762c.554-.87.998-1.546 1.337-2.037l-3.248-2.248a69.61 69.61 0 0 0-1.423 2.163l3.334 2.122Zm1.3-1.983 10.56-14.22L14.911.022l-10.56 14.22 3.172 2.356Zm10.37-14.001c.158-.158.382-.366.684-.63l-2.602-2.974c-.338.296-.634.568-.876.81l2.794 2.794Zm.78-.72a.523.523 0 0 1-.163.109c-.02.007.018-.01.146-.01v-3.952c-.947 0-1.978.26-2.777 1.059l2.794 2.794Zm-.017.099h7.98v-3.952h-7.98v3.952Zm7.98 0a.825.825 0 0 1-.34-.08.78.78 0 0 1-.26-.19l3-2.572a3.11 3.11 0 0 0-2.4-1.11v3.952Zm-.497-.159a.778.778 0 0 1-.219-.497h3.952c0-.849-.304-1.662-.94-2.297l-2.793 2.794Zm-.219-.497v-.005.006l3.833.958c.078-.312.119-.633.119-.959h-3.952Zm.042-.145c.045-.136.136-.31.297-.472l2.794 2.794c.321-.321.532-.696.657-1.072l-3.748-1.25Zm.101-.244-8.1 11.04 3.186 2.338 8.1-11.04L26.065.93Zm-5.882 14.083c-.007.003.054-.018.215-.018v-3.952c-.479 0-.978.06-1.465.222l1.25 3.748Zm.433-.03c.308-.035.552-.048.742-.048v-3.952c-.37 0-.765.027-1.178.072l.436 3.928Zm.654-.05c1.561.069 3.118.416 4.68 1.055l1.496-3.658c-1.958-.8-3.961-1.254-6-1.345l-.176 3.948Zm4.68 1.055c1.563.639 2.98 1.507 4.259 2.608l2.578-2.994a19.386 19.386 0 0 0-5.341-3.271l-1.496 3.656Zm4.259 2.608a11.61 11.61 0 0 1 2.926 3.854l3.566-1.702c-.955-2-2.26-3.723-3.914-5.146l-2.578 2.994Zm2.95 3.903c.722 1.41 1.103 3.035 1.103 4.92h3.952c0-2.436-.499-4.69-1.537-6.72l-3.518 1.8Zm1.103 4.92c0 2.396-.619 4.574-1.863 6.578l3.358 2.084c1.636-2.636 2.457-5.538 2.457-8.662h-3.952Zm-1.854 6.565c-1.237 1.958-3.006 3.573-5.376 4.83l1.852 3.49c2.91-1.543 5.221-3.608 6.864-6.21l-3.34-2.11Zm-5.366 4.824c-2.263 1.184-5.016 1.815-8.324 1.815v3.952c3.812 0 7.219-.73 10.156-2.265l-1.832-3.502Zm-8.384-2.873c1.442 0 2.816-.301 4.095-.915l-1.71-3.562a5.415 5.415 0 0 1-2.385.525v3.952Zm4.151-.943a8.234 8.234 0 0 0 3.144-2.834l-3.31-2.158a4.282 4.282 0 0 1-1.657 1.486l1.823 3.506Zm3.133-2.817c.898-1.348 1.292-2.93 1.292-4.636h-3.952c0 1.094-.247 1.872-.628 2.444l3.288 2.192Zm1.292-4.636c0-1.679-.361-3.24-1.221-4.56l-3.31 2.16c.34.52.58 1.279.58 2.4h3.95Zm-1.2-4.527a7.659 7.659 0 0 0-3.221-2.894l-1.71 3.562a3.709 3.709 0 0 1 1.58 1.426l3.35-2.094Zm-3.221-2.894c-1.288-.618-2.684-.915-4.155-.915v3.952c.929 0 1.733.183 2.445.525l1.71-3.562Zm-4.155-.915a9.895 9.895 0 0 0-4.188.902l1.656 3.588a5.946 5.946 0 0 1 2.532-.538v-3.952Zm-4.215.915a7.657 7.657 0 0 0-3.22 2.894l3.35 2.094a3.708 3.708 0 0 1 1.58-1.426l-1.71-3.562Zm-3.2 2.862c-.86 1.318-1.22 2.88-1.22 4.559h3.95c0-1.121.24-1.88.58-2.4l-3.31-2.16Zm-1.22 4.559c0 1.683.362 3.246 1.2 4.587l3.35-2.094c-.362-.58-.6-1.376-.6-2.493h-3.95Zm1.253 4.668a8.715 8.715 0 0 0 3.17 2.785l1.823-3.506a4.765 4.765 0 0 1-1.75-1.535l-3.243 2.256Zm3.227 2.813c1.288.618 2.684.915 4.155.915v-3.952c-.929 0-1.733-.183-2.445-.525l-1.71 3.562Z" fill="#fff" mask="url(#aa)"/>
</svg><svg fill="none" viewBox="0 0 27 23" id="arrow-left" xmlns="http://www.w3.org/2000/svg">
    <path fill-rule="evenodd" clip-rule="evenodd" d="M28.116 12c0 .431-.181.844-.503 1.15a1.767 1.767 0 0 1-1.214.475H6.514l7.37 6.975c.16.15.286.33.372.527a1.553 1.553 0 0 1 0 1.246 1.625 1.625 0 0 1-.373.528c-.159.15-.348.27-.557.352a1.802 1.802 0 0 1-1.315 0 1.728 1.728 0 0 1-.558-.352L1.155 13.15c-.16-.151-.287-.33-.373-.528a1.55 1.55 0 0 1 0-1.246c.086-.197.213-.377.373-.527L11.453 1.1c.16-.151.35-.271.558-.353a1.803 1.803 0 0 1 1.315 0c.208.082.398.202.557.353.323.305.504.719.504 1.15 0 .214-.045.425-.13.623a1.625 1.625 0 0 1-.373.528l-7.37 6.974h19.885c.455 0 .892.171 1.214.476.322.305.503.718.503 1.15Z" fill="gray"/>
</svg><svg viewBox="1 0 27 23" fill="none" id="arrow-right" xmlns="http://www.w3.org/2000/svg">
    <path fill-rule="evenodd" clip-rule="evenodd" d="M.346 12c0-.431.181-.844.503-1.15a1.766 1.766 0 0 1 1.214-.475h19.885L14.578 3.4a1.623 1.623 0 0 1-.372-.527 1.552 1.552 0 0 1 0-1.246c.086-.197.213-.377.372-.528.16-.15.35-.27.558-.352a1.803 1.803 0 0 1 1.315 0c.209.081.398.201.558.352l10.298 9.75c.16.151.287.33.373.528a1.55 1.55 0 0 1 0 1.246 1.622 1.622 0 0 1-.373.527L17.009 22.9c-.16.152-.35.271-.558.353a1.802 1.802 0 0 1-1.315 0 1.728 1.728 0 0 1-.558-.353 1.584 1.584 0 0 1-.503-1.15c0-.214.045-.425.13-.623.087-.197.214-.377.373-.528l7.37-6.974H2.063c-.455 0-.892-.171-1.214-.476a1.582 1.582 0 0 1-.503-1.15Z" fill="gray"/>
</svg><svg fill="none" viewBox="0 0 30 31" id="location" xmlns="http://www.w3.org/2000/svg">
    <g clip-path="url(#da)">
        <path d="M15.001 30.072S26.253 19.387 26.253 11.28c0-2.99-1.186-5.858-3.296-7.972A11.24 11.24 0 0 0 15.001.006 11.24 11.24 0 0 0 7.045 3.31 11.286 11.286 0 0 0 3.75 11.28c0 8.106 11.251 18.79 11.251 18.79Zm0-13.154a5.62 5.62 0 0 1-3.977-1.651 5.643 5.643 0 0 1 0-7.972 5.62 5.62 0 0 1 7.955 0 5.643 5.643 0 0 1 0 7.972 5.62 5.62 0 0 1-3.978 1.651Z" fill="#910000"/>
    </g>
    <defs>
        <clipPath id="da">
            <path fill="#fff" transform="translate(0 .006)" d="M0 0h30.004v30.066H0z"/>
        </clipPath>
    </defs>
</svg></svg>