<svg width="32" height="32" viewBox="0 0 32 32" fill="none" xmlns="http://www.w3.org/2000/svg">
<path d="M30.5172 8.46427L23.5359 1.48146C23.3038 1.24925 23.0282 1.06505 22.7248 0.939379C22.4215 0.813707 22.0963 0.749023 21.768 0.749023C21.4396 0.749023 21.1145 0.813707 20.8111 0.939379C20.5078 1.06505 20.2322 1.24925 20 1.48146L0.732825 20.7502C0.499668 20.9815 0.314815 21.2569 0.189011 21.5602C0.0632076 21.8636 -0.00103662 22.189 1.26484e-05 22.5174V29.5002C1.26484e-05 30.1632 0.263405 30.7991 0.732246 31.268C1.20109 31.7368 1.83697 32.0002 2.50001 32.0002H9.48283C9.81125 32.0013 10.1366 31.937 10.44 31.8112C10.7434 31.6854 11.0187 31.5006 11.25 31.2674L30.5172 12.0002C30.7494 11.7681 30.9336 11.4924 31.0593 11.1891C31.185 10.8857 31.2496 10.5606 31.2496 10.2322C31.2496 9.90389 31.185 9.57875 31.0593 9.2754C30.9336 8.97205 30.7494 8.69643 30.5172 8.46427ZM3.0172 22.0002L16.25 8.7674L18.8578 11.3752L5.62501 24.6065L3.0172 22.0002ZM2.50001 25.0174L6.98283 29.5002H2.50001V25.0174ZM10 28.983L7.3922 26.3752L20.625 13.1424L23.2328 15.7502L10 28.983ZM25 13.983L18.0172 7.00021L21.7672 3.25021L28.75 10.2315L25 13.983Z" fill="black"/>
</svg>
